<svg width="158" height="62" viewBox="0 0 158 62" fill="none" xmlns="http://www.w3.org/2000/svg">
<path d="M0 0H158V62H0V0Z" fill="#F6F9FC"/>
<path d="M34.3085 36.7858H28.6795L26.0131 42.4584H21.0678H21.045L34.3085 17.1066V17.126V12.8133L13.0914 19.263L16.3275 43.1772L34.3085 51.6667V36.7858Z" fill="#3F51B5"/>
<path d="M30.4343 33.289H34.3086V25.3435L30.4343 33.289Z" fill="#3F51B5"/>
<g filter="url(#filter0_i_1_25)">
<path d="M60.3884 23.4921H64.9396L69.7464 35.2194H69.9509L74.7578 23.4921H79.3089V40.9467H75.7294V29.5859H75.5845L71.0674 40.8615H68.6299L64.1129 29.5433H63.968V40.9467H60.3884V23.4921ZM86.0142 41.1938C85.1789 41.1938 84.4346 41.049 83.7812 40.7592C83.1278 40.4637 82.6107 40.0291 82.2301 39.4552C81.8551 38.8757 81.6676 38.1541 81.6676 37.2904C81.6676 36.5632 81.8011 35.9524 82.0681 35.458C82.3352 34.9637 82.6988 34.566 83.159 34.2649C83.6193 33.9637 84.142 33.7365 84.7272 33.583C85.3181 33.4296 85.9375 33.3217 86.5852 33.2592C87.3465 33.1796 87.9602 33.1058 88.4261 33.0376C88.892 32.9637 89.2301 32.8558 89.4403 32.7137C89.6505 32.5717 89.7556 32.3615 89.7556 32.083V32.0319C89.7556 31.4921 89.5852 31.0745 89.2443 30.7791C88.909 30.4836 88.4318 30.3359 87.8124 30.3359C87.159 30.3359 86.6392 30.4808 86.2528 30.7705C85.8664 31.0546 85.6107 31.4126 85.4857 31.8444L82.1278 31.5717C82.2982 30.7762 82.6335 30.0887 83.1335 29.5092C83.6335 28.924 84.2784 28.4751 85.0681 28.1626C85.8636 27.8444 86.784 27.6853 87.8295 27.6853C88.5568 27.6853 89.2528 27.7705 89.9176 27.941C90.588 28.1115 91.1818 28.3757 91.6988 28.7336C92.2215 29.0916 92.6335 29.5518 92.9346 30.1143C93.2357 30.6711 93.3863 31.3387 93.3863 32.1171V40.9467H89.9431V39.1313H89.8409C89.6306 39.5404 89.3494 39.9012 88.9971 40.2137C88.6448 40.5205 88.2215 40.762 87.7272 40.9382C87.2329 41.1086 86.6619 41.1938 86.0142 41.1938ZM87.0539 38.6882C87.588 38.6882 88.0596 38.583 88.4687 38.3728C88.8778 38.1569 89.1988 37.8671 89.4318 37.5035C89.6647 37.1399 89.7812 36.7279 89.7812 36.2677V34.8785C89.6676 34.9524 89.5113 35.0205 89.3125 35.083C89.1193 35.1399 88.9005 35.1938 88.6562 35.245C88.4119 35.2904 88.1676 35.333 87.9232 35.3728C87.6789 35.4069 87.4573 35.4382 87.2585 35.4666C86.8323 35.5291 86.4602 35.6285 86.142 35.7649C85.8238 35.9012 85.5767 36.0859 85.4005 36.3188C85.2244 36.5461 85.1363 36.8302 85.1363 37.1711C85.1363 37.6654 85.3153 38.0433 85.6732 38.3046C86.0369 38.5603 86.4971 38.6882 87.0539 38.6882ZM103.166 27.8558V30.583H95.2826V27.8558H103.166ZM97.0724 24.7194H100.703V36.924C100.703 37.2592 100.754 37.5205 100.856 37.708C100.959 37.8899 101.101 38.0177 101.283 38.0916C101.47 38.1654 101.686 38.2024 101.93 38.2024C102.101 38.2024 102.271 38.1882 102.442 38.1598C102.612 38.1257 102.743 38.1001 102.834 38.083L103.405 40.7848C103.223 40.8416 102.967 40.9069 102.638 40.9808C102.308 41.0603 101.908 41.1086 101.436 41.1257C100.561 41.1598 99.794 41.0433 99.1349 40.7762C98.4815 40.5092 97.973 40.0944 97.6093 39.5319C97.2457 38.9694 97.0667 38.2592 97.0724 37.4012V24.7194ZM111.356 41.2024C110.01 41.2024 108.851 40.9296 107.879 40.3842C106.913 39.833 106.169 39.0546 105.646 38.049C105.124 37.0376 104.862 35.8416 104.862 34.4609C104.862 33.1143 105.124 31.9325 105.646 30.9154C106.169 29.8984 106.905 29.1058 107.854 28.5376C108.808 27.9694 109.928 27.6853 111.212 27.6853C112.075 27.6853 112.879 27.8245 113.624 28.1029C114.374 28.3757 115.027 28.7876 115.584 29.3387C116.146 29.8899 116.584 30.583 116.896 31.4183C117.209 32.2478 117.365 33.2194 117.365 34.333V35.3302H106.311V33.0802H113.947C113.947 32.5575 113.834 32.0944 113.606 31.691C113.379 31.2876 113.064 30.9723 112.66 30.745C112.263 30.512 111.8 30.3955 111.271 30.3955C110.72 30.3955 110.231 30.5234 109.805 30.7791C109.385 31.0291 109.055 31.3671 108.817 31.7933C108.578 32.2137 108.456 32.6825 108.45 33.1995V35.3387C108.45 35.9865 108.57 36.5461 108.808 37.0177C109.053 37.4893 109.396 37.8529 109.839 38.1086C110.283 38.3643 110.808 38.4921 111.416 38.4921C111.82 38.4921 112.189 38.4353 112.524 38.3217C112.859 38.208 113.146 38.0376 113.385 37.8103C113.624 37.583 113.805 37.3046 113.93 36.9751L117.288 37.1967C117.118 38.0035 116.768 38.708 116.24 39.3103C115.717 39.9069 115.041 40.3728 114.212 40.708C113.388 41.0376 112.436 41.2024 111.356 41.2024ZM119.734 40.9467V27.8558H123.254V30.1399H123.391C123.629 29.3274 124.03 28.7137 124.592 28.299C125.155 27.8785 125.803 27.6683 126.535 27.6683C126.717 27.6683 126.913 27.6796 127.124 27.7024C127.334 27.7251 127.518 27.7563 127.678 27.7961V31.0177C127.507 30.9666 127.271 30.9211 126.97 30.8813C126.669 30.8416 126.393 30.8217 126.143 30.8217C125.609 30.8217 125.132 30.9382 124.712 31.1711C124.297 31.3984 123.967 31.7166 123.723 32.1257C123.484 32.5348 123.365 33.0063 123.365 33.5404V40.9467H119.734ZM129.555 40.9467V27.8558H133.185V40.9467H129.555ZM131.379 26.1683C130.839 26.1683 130.376 25.9893 129.989 25.6313C129.609 25.2677 129.418 24.833 129.418 24.3274C129.418 23.8274 129.609 23.3984 129.989 23.0404C130.376 22.6768 130.839 22.495 131.379 22.495C131.918 22.495 132.379 22.6768 132.759 23.0404C133.146 23.3984 133.339 23.8274 133.339 24.3274C133.339 24.833 133.146 25.2677 132.759 25.6313C132.379 25.9893 131.918 26.1683 131.379 26.1683ZM139.827 41.1938C138.991 41.1938 138.247 41.049 137.594 40.7592C136.94 40.4637 136.423 40.0291 136.043 39.4552C135.668 38.8757 135.48 38.1541 135.48 37.2904C135.48 36.5632 135.614 35.9524 135.881 35.458C136.148 34.9637 136.511 34.566 136.972 34.2649C137.432 33.9637 137.954 33.7365 138.54 33.583C139.131 33.4296 139.75 33.3217 140.398 33.2592C141.159 33.1796 141.773 33.1058 142.239 33.0376C142.704 32.9637 143.043 32.8558 143.253 32.7137C143.463 32.5717 143.568 32.3615 143.568 32.083V32.0319C143.568 31.4921 143.398 31.0745 143.057 30.7791C142.722 30.4836 142.244 30.3359 141.625 30.3359C140.972 30.3359 140.452 30.4808 140.065 30.7705C139.679 31.0546 139.423 31.4126 139.298 31.8444L135.94 31.5717C136.111 30.7762 136.446 30.0887 136.946 29.5092C137.446 28.924 138.091 28.4751 138.881 28.1626C139.676 27.8444 140.597 27.6853 141.642 27.6853C142.369 27.6853 143.065 27.7705 143.73 27.941C144.401 28.1115 144.994 28.3757 145.511 28.7336C146.034 29.0916 146.446 29.5518 146.747 30.1143C147.048 30.6711 147.199 31.3387 147.199 32.1171V40.9467H143.756V39.1313H143.653C143.443 39.5404 143.162 39.9012 142.81 40.2137C142.457 40.5205 142.034 40.762 141.54 40.9382C141.045 41.1086 140.474 41.1938 139.827 41.1938ZM140.866 38.6882C141.401 38.6882 141.872 38.583 142.281 38.3728C142.69 38.1569 143.011 37.8671 143.244 37.5035C143.477 37.1399 143.594 36.7279 143.594 36.2677V34.8785C143.48 34.9524 143.324 35.0205 143.125 35.083C142.932 35.1399 142.713 35.1938 142.469 35.245C142.224 35.2904 141.98 35.333 141.736 35.3728C141.491 35.4069 141.27 35.4382 141.071 35.4666C140.645 35.5291 140.273 35.6285 139.954 35.7649C139.636 35.9012 139.389 36.0859 139.213 36.3188C139.037 36.5461 138.949 36.8302 138.949 37.1711C138.949 37.6654 139.128 38.0433 139.486 38.3046C139.849 38.5603 140.31 38.6882 140.866 38.6882ZM153.646 23.4921V40.9467H150.016V23.4921H153.646Z" fill="#3F51B5"/>
</g>
<g opacity="0.9">
<path d="M34.3086 36.7858H39.9376L42.604 42.4584H47.5493H47.5721L34.3086 17.1066V17.126V12.8133L55.5257 19.263L52.2896 43.1772L34.3086 51.6667V36.7858Z" fill="#3F51B5"/>
<path d="M38.1828 33.289H34.3086V25.3435L38.1828 33.289Z" fill="#3F51B5"/>
</g>
<defs>
<filter id="filter0_i_1_25" x="60.3885" y="22.495" width="93.2578" height="22.7074" filterUnits="userSpaceOnUse" color-interpolation-filters="sRGB">
<feFlood flood-opacity="0" result="BackgroundImageFix"/>
<feBlend mode="normal" in="SourceGraphic" in2="BackgroundImageFix" result="shape"/>
<feColorMatrix in="SourceAlpha" type="matrix" values="0 0 0 0 0 0 0 0 0 0 0 0 0 0 0 0 0 0 127 0" result="hardAlpha"/>
<feOffset dy="4"/>
<feGaussianBlur stdDeviation="2"/>
<feComposite in2="hardAlpha" operator="arithmetic" k2="-1" k3="1"/>
<feColorMatrix type="matrix" values="0 0 0 0 0 0 0 0 0 0 0 0 0 0 0 0 0 0 0.25 0"/>
<feBlend mode="normal" in2="shape" result="effect1_innerShadow_1_25"/>
</filter>
</defs>
</svg>
