<svg width="212" height="89" viewBox="0 0 212 89" fill="none" xmlns="http://www.w3.org/2000/svg">
<path d="M0 0H212V88.5462H0V0Z" fill="#F6F9FC"/>
<path d="M46.0342 52.5363H38.4814L34.9037 60.6377H28.2681H28.2376L46.0342 24.4311V24.4588V18.2996L17.5657 27.5107L21.9078 61.6642L46.0342 73.7885V52.5363Z" fill="#3F51B5"/>
<path d="M40.8359 47.5423H46.0343V36.1948L40.8359 47.5423Z" fill="#3F51B5"/>
<g filter="url(#filter0_i_9_65)">
<path d="M85.4446 35.6364H90.7543L96.3622 49.3182H96.6008L102.209 35.6364H107.518V56H103.342V42.7457H103.173L97.9034 55.9006H95.0596L89.7898 42.696H89.6207V56H85.4446V35.6364ZM115.341 56.2884C114.367 56.2884 113.498 56.1193 112.736 55.7812C111.974 55.4366 111.371 54.9295 110.926 54.2599C110.489 53.5838 110.27 52.742 110.27 51.7344C110.27 50.8859 110.426 50.1733 110.738 49.5966C111.049 49.0199 111.473 48.5559 112.01 48.2045C112.547 47.8532 113.157 47.5881 113.84 47.4091C114.529 47.2301 115.252 47.1042 116.007 47.0312C116.896 46.9384 117.612 46.8523 118.155 46.7727C118.699 46.6866 119.093 46.5606 119.338 46.3949C119.584 46.2292 119.706 45.9839 119.706 45.6591V45.5994C119.706 44.9697 119.507 44.4825 119.11 44.1378C118.719 43.7931 118.162 43.6207 117.439 43.6207C116.677 43.6207 116.07 43.7898 115.62 44.1278C115.169 44.4593 114.871 44.8769 114.725 45.3807L110.807 45.0625C111.006 44.1345 111.397 43.3324 111.98 42.6562C112.564 41.9735 113.316 41.4498 114.238 41.0852C115.166 40.714 116.239 40.5284 117.459 40.5284C118.308 40.5284 119.12 40.6278 119.895 40.8267C120.677 41.0256 121.37 41.3338 121.973 41.7514C122.583 42.169 123.064 42.706 123.415 43.3622C123.766 44.0118 123.942 44.7907 123.942 45.6989V56H119.925V53.8821H119.806C119.56 54.3594 119.232 54.7803 118.821 55.1449C118.41 55.5028 117.917 55.7846 117.34 55.9901C116.763 56.1889 116.097 56.2884 115.341 56.2884ZM116.554 53.3651C117.177 53.3651 117.728 53.2424 118.205 52.9972C118.682 52.7453 119.057 52.4072 119.328 51.983C119.6 51.5587 119.736 51.0781 119.736 50.5412V48.9205C119.604 49.0066 119.421 49.0862 119.189 49.1591C118.964 49.2254 118.709 49.2884 118.424 49.348C118.139 49.401 117.854 49.4508 117.569 49.4972C117.283 49.5369 117.025 49.5734 116.793 49.6065C116.296 49.6795 115.862 49.7955 115.49 49.9545C115.119 50.1136 114.831 50.3291 114.625 50.6009C114.42 50.866 114.317 51.1974 114.317 51.5952C114.317 52.1719 114.526 52.6127 114.944 52.9176C115.368 53.2159 115.905 53.3651 116.554 53.3651ZM135.352 40.7273V43.9091H126.154V40.7273H135.352ZM128.243 37.0682H132.478V51.3068C132.478 51.6979 132.538 52.0028 132.657 52.2216C132.777 52.4337 132.942 52.5829 133.154 52.669C133.373 52.7552 133.625 52.7983 133.91 52.7983C134.109 52.7983 134.308 52.7817 134.507 52.7486C134.706 52.7088 134.858 52.679 134.964 52.6591L135.63 55.8111C135.418 55.8774 135.12 55.9536 134.735 56.0398C134.351 56.1326 133.884 56.1889 133.333 56.2088C132.313 56.2486 131.418 56.1127 130.649 55.8011C129.886 55.4896 129.293 55.0057 128.869 54.3494C128.445 53.6932 128.236 52.8646 128.243 51.8636V37.0682ZM144.907 56.2983C143.336 56.2983 141.984 55.9801 140.85 55.3438C139.724 54.7008 138.855 53.7926 138.245 52.6193C137.636 51.4394 137.331 50.044 137.331 48.4332C137.331 46.8622 137.636 45.4834 138.245 44.2969C138.855 43.1103 139.714 42.1856 140.821 41.5227C141.934 40.8598 143.24 40.5284 144.738 40.5284C145.746 40.5284 146.684 40.6908 147.552 41.0156C148.427 41.3338 149.19 41.8144 149.839 42.4574C150.495 43.1004 151.006 43.9091 151.37 44.8835C151.735 45.8513 151.917 46.9848 151.917 48.2841V49.4474H139.021V46.8224H147.93C147.93 46.2126 147.797 45.6723 147.532 45.2017C147.267 44.7311 146.899 44.3632 146.429 44.098C145.965 43.8262 145.424 43.6903 144.808 43.6903C144.165 43.6903 143.595 43.8395 143.098 44.1378C142.607 44.4295 142.223 44.8239 141.944 45.321C141.666 45.8116 141.523 46.3584 141.517 46.9616V49.4574C141.517 50.2131 141.656 50.866 141.934 51.4162C142.219 51.9664 142.62 52.3906 143.137 52.6889C143.654 52.9872 144.268 53.1364 144.977 53.1364C145.448 53.1364 145.878 53.0701 146.27 52.9375C146.661 52.8049 146.995 52.6061 147.274 52.3409C147.552 52.0758 147.764 51.7509 147.91 51.3665L151.828 51.625C151.629 52.5663 151.221 53.3883 150.605 54.0909C149.995 54.7869 149.206 55.3305 148.238 55.7216C147.277 56.1061 146.167 56.2983 144.907 56.2983ZM154.681 56V40.7273H158.788V43.392H158.947C159.225 42.4441 159.693 41.7282 160.349 41.2443C161.005 40.7538 161.761 40.5085 162.616 40.5085C162.828 40.5085 163.057 40.5218 163.302 40.5483C163.547 40.5748 163.763 40.6113 163.948 40.6577V44.4162C163.75 44.3565 163.475 44.3035 163.123 44.2571C162.772 44.2107 162.45 44.1875 162.159 44.1875C161.536 44.1875 160.979 44.3234 160.488 44.5952C160.004 44.8603 159.62 45.2315 159.335 45.7088C159.056 46.1861 158.917 46.7363 158.917 47.3594V56H154.681ZM166.138 56V40.7273H170.374V56H166.138ZM168.266 38.7585C167.637 38.7585 167.096 38.5497 166.646 38.1321C166.201 37.7079 165.979 37.2008 165.979 36.6108C165.979 36.0275 166.201 35.527 166.646 35.1094C167.096 34.6851 167.637 34.473 168.266 34.473C168.896 34.473 169.433 34.6851 169.877 35.1094C170.328 35.527 170.553 36.0275 170.553 36.6108C170.553 37.2008 170.328 37.7079 169.877 38.1321C169.433 38.5497 168.896 38.7585 168.266 38.7585ZM178.123 56.2884C177.148 56.2884 176.28 56.1193 175.517 55.7812C174.755 55.4366 174.152 54.9295 173.708 54.2599C173.27 53.5838 173.051 52.742 173.051 51.7344C173.051 50.8859 173.207 50.1733 173.519 49.5966C173.83 49.0199 174.255 48.5559 174.792 48.2045C175.328 47.8532 175.938 47.5881 176.621 47.4091C177.31 47.2301 178.033 47.1042 178.789 47.0312C179.677 46.9384 180.393 46.8523 180.936 46.7727C181.48 46.6866 181.874 46.5606 182.12 46.3949C182.365 46.2292 182.488 45.9839 182.488 45.6591V45.5994C182.488 44.9697 182.289 44.4825 181.891 44.1378C181.5 43.7931 180.943 43.6207 180.221 43.6207C179.458 43.6207 178.852 43.7898 178.401 44.1278C177.95 44.4593 177.652 44.8769 177.506 45.3807L173.588 45.0625C173.787 44.1345 174.178 43.3324 174.762 42.6562C175.345 41.9735 176.097 41.4498 177.019 41.0852C177.947 40.714 179.021 40.5284 180.24 40.5284C181.089 40.5284 181.901 40.6278 182.676 40.8267C183.459 41.0256 184.151 41.3338 184.755 41.7514C185.364 42.169 185.845 42.706 186.196 43.3622C186.548 44.0118 186.723 44.7907 186.723 45.6989V56H182.706V53.8821H182.587C182.342 54.3594 182.014 54.7803 181.603 55.1449C181.192 55.5028 180.698 55.7846 180.121 55.9901C179.544 56.1889 178.878 56.2884 178.123 56.2884ZM179.336 53.3651C179.959 53.3651 180.509 53.2424 180.986 52.9972C181.463 52.7453 181.838 52.4072 182.11 51.983C182.382 51.5587 182.517 51.0781 182.517 50.5412V48.9205C182.385 49.0066 182.203 49.0862 181.971 49.1591C181.745 49.2254 181.49 49.2884 181.205 49.348C180.92 49.401 180.635 49.4508 180.35 49.4972C180.065 49.5369 179.806 49.5734 179.574 49.6065C179.077 49.6795 178.643 49.7955 178.272 49.9545C177.9 50.1136 177.612 50.3291 177.407 50.6009C177.201 50.866 177.098 51.1974 177.098 51.5952C177.098 52.1719 177.307 52.6127 177.725 52.9176C178.149 53.2159 178.686 53.3651 179.336 53.3651ZM194.245 35.6364V56H190.01V35.6364H194.245Z" fill="#3F51B5"/>
</g>
<g opacity="0.9">
<path d="M46.0343 52.5363H53.5872L57.1648 60.6377H63.8004H63.8309L46.0343 24.4311V24.4588V18.2996L74.5028 27.5107L70.1607 61.6642L46.0343 73.7885V52.5363Z" fill="#3F51B5"/>
<path d="M51.2326 47.5423H46.0343V36.1948L51.2326 47.5423Z" fill="#3F51B5"/>
</g>
<defs>
<filter id="filter0_i_9_65" x="85.4446" y="34.473" width="108.801" height="25.8253" filterUnits="userSpaceOnUse" color-interpolation-filters="sRGB">
<feFlood flood-opacity="0" result="BackgroundImageFix"/>
<feBlend mode="normal" in="SourceGraphic" in2="BackgroundImageFix" result="shape"/>
<feColorMatrix in="SourceAlpha" type="matrix" values="0 0 0 0 0 0 0 0 0 0 0 0 0 0 0 0 0 0 127 0" result="hardAlpha"/>
<feOffset dy="4"/>
<feGaussianBlur stdDeviation="2"/>
<feComposite in2="hardAlpha" operator="arithmetic" k2="-1" k3="1"/>
<feColorMatrix type="matrix" values="0 0 0 0 0 0 0 0 0 0 0 0 0 0 0 0 0 0 0.25 0"/>
<feBlend mode="normal" in2="shape" result="effect1_innerShadow_9_65"/>
</filter>
</defs>
</svg>
